<svg width="30" height="30" viewBox="0 0 30 30" fill="none" xmlns="http://www.w3.org/2000/svg">
<path d="M11.25 6.5625C11.0014 6.5625 10.7629 6.66127 10.5871 6.83709C10.4113 7.0129 10.3125 7.25136 10.3125 7.5C10.3125 7.74864 10.4113 7.9871 10.5871 8.16291C10.7629 8.33873 11.0014 8.4375 11.25 8.4375H18.75C18.9986 8.4375 19.2371 8.33873 19.4129 8.16291C19.5887 7.9871 19.6875 7.74864 19.6875 7.5C19.6875 7.25136 19.5887 7.0129 19.4129 6.83709C19.2371 6.66127 18.9986 6.5625 18.75 6.5625H11.25Z" fill="#FFE9B0"/>
<path fill-rule="evenodd" clip-rule="evenodd" d="M14.9288 1.5625C12.3375 1.5625 10.2962 1.5625 8.70125 1.77875C7.06375 2.00125 5.7575 2.46875 4.73125 3.50625C3.70625 4.5425 3.24625 5.85875 3.02625 7.50875C2.8125 9.12 2.8125 11.1813 2.8125 13.8013V20.1737C2.8125 22.0588 2.8125 23.55 2.9325 24.6737C3.05125 25.7838 3.305 26.785 4.0325 27.455C4.615 27.9925 5.3525 28.33 6.14 28.4212C7.12375 28.5337 8.0425 28.0638 8.94875 27.4212C9.865 26.7738 10.9762 25.79 12.3787 24.55L12.4237 24.51C13.0738 23.935 13.5137 23.5475 13.8812 23.2775C14.2362 23.0187 14.4525 22.925 14.635 22.8875C14.876 22.84 15.124 22.84 15.365 22.8875C15.5475 22.925 15.765 23.0187 16.1188 23.2775C16.4863 23.5462 16.9262 23.935 17.5763 24.51L17.6225 24.55C19.0238 25.79 20.135 26.7738 21.0513 27.4225C21.9575 28.0637 22.8762 28.5337 23.86 28.4212C24.6472 28.3307 25.3852 27.9923 25.9675 27.455C26.6938 26.785 26.9487 25.7838 27.0675 24.6737C27.1875 23.55 27.1875 22.0588 27.1875 20.1737V13.8013C27.1875 11.1813 27.1875 9.11875 26.9738 7.50875C26.7537 5.85875 26.2938 4.5425 25.2687 3.50625C24.2425 2.46875 22.9362 2.00125 21.2987 1.77875C19.7037 1.5625 17.6625 1.5625 15.0712 1.5625H14.9288ZM6.0625 4.825C6.68375 4.1975 7.5275 3.83125 8.9525 3.6375C10.4062 3.44 12.32 3.4375 14.9987 3.4375C17.6775 3.4375 19.5913 3.44 21.045 3.6375C22.47 3.83125 23.3138 4.1975 23.935 4.825C24.5575 5.45375 24.9212 6.31 25.1138 7.75625C25.3088 9.22875 25.3113 11.165 25.3113 13.8725V20.1138C25.3113 22.0712 25.31 23.4638 25.2025 24.4738C25.09 25.5113 24.8862 25.9 24.6963 26.0763C24.4037 26.345 24.0362 26.5138 23.6462 26.5575C23.3962 26.5863 22.9788 26.49 22.1338 25.8925C21.3113 25.3088 20.275 24.395 18.8175 23.105L18.785 23.0763C18.175 22.5375 17.67 22.0912 17.2238 21.7637C16.7575 21.4237 16.2875 21.1613 15.7337 21.05C15.2486 20.9523 14.7489 20.9523 14.2638 21.05C13.71 21.1625 13.2387 21.4237 12.7738 21.765C12.3275 22.09 11.8225 22.5375 11.2125 23.0763L11.18 23.105C9.7225 24.395 8.68625 25.3088 7.86375 25.8925C7.01875 26.49 6.60125 26.5863 6.35125 26.5575C5.95907 26.5125 5.59136 26.344 5.30125 26.0763C5.11125 25.9 4.90625 25.5113 4.79625 24.4738C4.6875 23.4625 4.68625 22.0712 4.68625 20.1138V13.8713C4.68625 11.165 4.68875 9.22875 4.88375 7.75625C5.07625 6.31 5.44 5.45375 6.0625 4.825Z" fill="#FFE9B0"/>
</svg>
